<svg width="224" height="256" viewBox="0 0 224 256" fill="none" xmlns="http://www.w3.org/2000/svg">
<path d="M93.25 146.5C93.25 156.15 86.25 159.2 77.65 159.2H55.1V132.75H78.1C87.4 132.8 93.25 136.65 93.25 146.5ZM89.4 105.35C89.4 96.5 82.55 94.4 74.95 94.4H55.15V116.8H76.5C84.05 116.8 89.4 113.5 89.4 105.35ZM155.55 116.95C146.4 116.95 140.3 122.65 139.7 131.8H170.8C169.95 122.55 165.15 116.95 155.55 116.95ZM224 40V216C224 229.25 213.25 240 200 240H24C10.75 240 0 229.25 0 216V40C0 26.75 10.75 16 24 16H200C213.25 16 224 26.75 224 40ZM135.85 92.5H174.75V83.05H135.85V92.5ZM114.35 147.65C114.35 135.6 108.65 125.2 96.85 121.85C105.45 117.75 109.95 113 109.95 103.35C109.95 84.25 95.7 79.6 79.25 79.6H34V175.6H80.55C98 175.5 114.35 167.15 114.35 147.65ZM190 140.25C190 119.7 177.95 102.55 156.2 102.55C135 102.55 120.65 118.45 120.65 139.35C120.65 161 134.3 175.85 156.2 175.85C172.8 175.85 183.55 168.4 188.75 152.45H171.9C170.05 158.4 162.6 161.5 156.8 161.5C145.6 161.5 139.75 154.95 139.75 143.85H189.85C189.9 142.7 190 141.45 190 140.25Z" fill="black"/>
</svg>
